<?xml version="1.0" encoding="UTF-8" standalone="no"?>
<!-- Created with Inkscape (http://www.inkscape.org/) -->

<svg
   xmlns:dc="http://purl.org/dc/elements/1.1/"
   xmlns:cc="http://creativecommons.org/ns#"
   xmlns:rdf="http://www.w3.org/1999/02/22-rdf-syntax-ns#"
   xmlns:svg="http://www.w3.org/2000/svg"
   xmlns="http://www.w3.org/2000/svg"
   xmlns:sodipodi="http://sodipodi.sourceforge.net/DTD/sodipodi-0.dtd"
   xmlns:inkscape="http://www.inkscape.org/namespaces/inkscape"
   width="221"
   height="183"
   id="svg2"
   version="1.1"
   inkscape:version="0.48.4 r9939"
   sodipodi:docname="logo.svg">
  <defs
     id="defs4" />
  <sodipodi:namedview
     id="base"
     pagecolor="#ffffff"
     bordercolor="#666666"
     borderopacity="1.0"
     inkscape:pageopacity="0.0"
     inkscape:pageshadow="2"
     inkscape:zoom="1.4"
     inkscape:cx="306.55952"
     inkscape:cy="62.643283"
     inkscape:document-units="px"
     inkscape:current-layer="layer1"
     showgrid="false"
     inkscape:window-width="1366"
     inkscape:window-height="713"
     inkscape:window-x="0"
     inkscape:window-y="27"
     inkscape:window-maximized="1" />
  <metadata
     id="metadata7">
    <rdf:RDF>
      <cc:Work
         rdf:about="">
        <dc:format>image/svg+xml</dc:format>
        <dc:type
           rdf:resource="http://purl.org/dc/dcmitype/StillImage" />
        <dc:title></dc:title>
      </cc:Work>
    </rdf:RDF>
  </metadata>
  <g
     inkscape:label="Layer 1"
     inkscape:groupmode="layer"
     id="layer1"
     transform="translate(0,-869.3605)">
    <g
       transform="matrix(0.03225474,0,0,-0.03011389,-2.1944095,1066.5847)"
       id="g4"
       style="fill:#37abc8;stroke:none">
      <path
         d="M 650,6501 C 449,6461 239,6231 138,5940 l -33,-95 0,-1805 c 0,-1721 1,-1808 18,-1870 99,-349 496,-586 1035,-617 61,-3 112,-10 112,-14 0,-28 -54,-147 -93,-205 C 1128,1261 967,1096 835,984 711,880 630,799 609,758 585,711 584,627 608,580 c 41,-81 117,-99 352,-82 459,34 884,197 1280,490 145,108 383,344 485,482 l 78,105 1766,5 1766,5 46,21 c 201,93 457,356 504,517 13,47 15,275 13,1958 l -3,1906 -39,77 c -65,127 -198,274 -334,366 -130,88 174,80 -3006,79 -1557,-1 -2847,-4 -2866,-8 z m 5675,-395 c 28,-17 73,-53 101,-80 27,-28 63,-73 80,-101 l 29,-50 3,-1800 c 3,-2042 12,-1830 -88,-1963 -58,-77 -132,-142 -183,-161 -20,-8 -598,-11 -1863,-11 l -1835,0 -25,-28 c -24,-25 -104,-151 -240,-376 -70,-116 -133,-178 -282,-277 -132,-87 -290,-165 -446,-218 -65,-23 -120,-41 -122,-41 -3,0 5,19 17,42 40,79 107,254 128,338 17,65 23,128 28,265 l 6,180 -47,57 -47,58 -372,0 c -340,0 -375,2 -413,19 -103,47 -216,196 -269,356 l -25,74 0,1684 c 0,1630 1,1687 19,1746 37,119 171,282 252,308 24,8 828,11 2789,10 l 2755,-2 50,-29 z"
         id="path6"
         inkscape:connector-curvature="0"
         style="fill:#37abc8" />
    </g>
    <flowRoot
       xml:space="preserve"
       id="flowRoot2994"
       style="font-size:40px;font-style:normal;font-weight:normal;line-height:125%;letter-spacing:0px;word-spacing:0px;fill:#000000;fill-opacity:1;stroke:none;font-family:Sans"
       transform="translate(-11.428571,865.21764)"><flowRegion
         id="flowRegion2996"><rect
           id="rect2998"
           width="269.28571"
           height="169.28572"
           x="28.571428"
           y="26.428572" /></flowRegion><flowPara
         id="flowPara3000"
         style="font-size:78px;font-style:normal;font-variant:normal;font-weight:bold;font-stretch:normal;text-align:start;line-height:76.99999809%;letter-spacing:8.18000317px;writing-mode:lr-tb;text-anchor:start;fill:#5fbcd3;font-family:Latin Modern Sans;-inkscape-font-specification:Latin Modern Sans Bold">talk</flowPara><flowPara
         id="flowPara3002"
         style="font-size:78px;font-style:normal;font-variant:normal;font-weight:bold;font-stretch:normal;text-align:start;line-height:76.99999809%;letter-spacing:8.18000317px;writing-mode:lr-tb;text-anchor:start;fill:#5fbcd3;font-family:Latin Modern Sans;-inkscape-font-specification:Latin Modern Sans Bold">time</flowPara></flowRoot>    <text
       xml:space="preserve"
       style="font-size:40px;font-style:normal;font-weight:normal;line-height:125%;letter-spacing:0px;word-spacing:0px;fill:#000000;fill-opacity:1;stroke:none;font-family:Sans"
       x="90.714287"
       y="1041.6462"
       id="text3004"
       sodipodi:linespacing="125%"><tspan
         sodipodi:role="line"
         id="tspan3006"
         x="90.714287"
         y="1041.6462"
         style="font-size:20px;font-style:normal;font-variant:normal;font-weight:normal;font-stretch:normal;fill:#ff6600;font-family:Latin Modern Sans;-inkscape-font-specification:Latin Modern Sans">EDINBURGH</tspan></text>
  </g>
</svg>
