<?xml version="1.0" encoding="UTF-8" standalone="no"?>
<svg
   xmlns:dc="http://purl.org/dc/elements/1.1/"
   xmlns:cc="http://creativecommons.org/ns#"
   xmlns:rdf="http://www.w3.org/1999/02/22-rdf-syntax-ns#"
   xmlns:svg="http://www.w3.org/2000/svg"
   xmlns="http://www.w3.org/2000/svg"
   id="svg8"
   version="1.1"
   viewBox="0 0 210 297"
   height="297mm"
   width="210mm">
  <defs
     id="defs2" />
  <metadata
     id="metadata5">
    <rdf:RDF>
      <cc:Work
         rdf:about="">
        <dc:format>image/svg+xml</dc:format>
        <dc:type
           rdf:resource="http://purl.org/dc/dcmitype/StillImage" />
        <dc:title></dc:title>
      </cc:Work>
    </rdf:RDF>
  </metadata>
  <g
     id="layer1">
    <path
       id="rect3710"
       d="m 51.82034,33.234565 c -1.648314,0 -2.975115,1.337984 -2.975115,3.00019 v 29.283508 c 0,1.662209 1.326801,3.00019 2.975115,3.00019 h 17.285903 c 0.01335,6.814641 -0.783906,8.165875 -5.5884,10.37947 9.259838,-0.748147 14.879221,0.323377 17.831213,-10.37947 h 63.126234 c 1.64832,0 2.97561,-1.337981 2.97561,-3.00019 V 36.234755 c 0,-1.662206 -1.32729,-3.00019 -2.97561,-3.00019 z"
       style="fill:#81bef7;fill-opacity:1;stroke:#f8830d;stroke-width:1.39431047;stroke-miterlimit:4;stroke-dasharray:none;stroke-opacity:1" />
    <text
       transform="scale(0.95263136,1.049724)"
       id="text4574"
       y="51.120613"
       x="57.235592"
       style="font-style:normal;font-weight:normal;font-size:21.61745071px;line-height:1.25;font-family:sans-serif;letter-spacing:0.47447917px;word-spacing:0px;fill:#ffffff;fill-opacity:1;stroke:none;stroke-width:0.54043627"
       xml:space="preserve"><tspan
         style="letter-spacing:0.47447917px;fill:#ffffff;fill-opacity:1;stroke-width:0.54043627"
         y="51.120613"
         x="57.235592"
         id="tspan4572">talktime</tspan></text>
    <text
       transform="scale(1.0417708,0.95990405)"
       id="text4578"
       y="67.569267"
       x="54.319736"
       style="font-style:normal;font-weight:normal;font-size:10.65134811px;line-height:1.25;font-family:sans-serif;letter-spacing:2.98450017px;word-spacing:0px;fill:#000000;fill-opacity:1;stroke:none;stroke-width:0.26628363"
       xml:space="preserve"><tspan
         style="letter-spacing:2.98450017px;stroke-width:0.26628363"
         y="67.569267"
         x="54.319736"
         id="tspan4576">SCOTLAND</tspan></text>
    <path
       id="rect3710-2"
       d="m 50.958385,110.33323 c -1.648314,0 -2.975115,1.33799 -2.975115,3.00019 v 29.28351 c 0,1.66221 1.326801,3.00019 2.975115,3.00019 h 17.285903 c 0.01335,6.81464 -0.783906,8.16588 -5.5884,10.37947 9.259838,-0.74815 14.879222,0.32338 17.831213,-10.37947 h 63.126239 c 1.64832,0 2.97561,-1.33798 2.97561,-3.00019 v -29.28351 c 0,-1.6622 -1.32729,-3.00019 -2.97561,-3.00019 z"
       style="fill:#ffffff;fill-opacity:1;stroke:#000000;stroke-width:1.39431047;stroke-miterlimit:4;stroke-dasharray:none;stroke-opacity:1" />
    <text
       transform="scale(0.95263136,1.049724)"
       id="text4574-0"
       y="124.56721"
       x="56.330772"
       style="font-style:normal;font-weight:normal;font-size:21.61745071px;line-height:1.25;font-family:sans-serif;letter-spacing:0.47447917px;word-spacing:0px;fill:#000000;fill-opacity:1;stroke:#000000;stroke-width:0.54043627;stroke-opacity:0;"
       xml:space="preserve"><tspan
         style="letter-spacing:0.47447917px;fill:#000000;fill-opacity:1;stroke:#000000;stroke-width:0.54043627;stroke-opacity:0;"
         y="124.56721"
         x="56.330772"
         id="tspan4572-8">talktime</tspan></text>
    <text
       transform="scale(1.0417708,0.95990405)"
       id="text4578-8"
       y="147.88841"
       x="53.49234"
       style="font-style:normal;font-weight:normal;font-size:10.65134811px;line-height:1.25;font-family:sans-serif;letter-spacing:2.98450017px;word-spacing:0px;fill:#000000;fill-opacity:1;stroke:#000000;stroke-width:0.26628363;stroke-opacity:0"
       xml:space="preserve"><tspan
         style="letter-spacing:2.98450017px;stroke:#000000;stroke-width:0.26628363;stroke-opacity:0"
         y="147.88841"
         x="53.49234"
         id="tspan4576-0">SCOTLAND</tspan></text>
  </g>
</svg>
