<svg version="1" xmlns="http://www.w3.org/2000/svg" width="636" height="636" viewBox="0 0 477.000000 477.000000"><path d="M32.5 1.1C18.7 4.2 8.2 11.6 2.8 22L.5 26.5v293l2.7 5.1c4.4 8.4 13.6 15.4 24.8 19 4.9 1.6 11 1.8 55 2 27.2.2 51 .3 52.8.4h3.3l-.2 17.4c-.3 26.9-3.1 42.7-10 57.2-7 14.9-16.2 23.9-36.5 36-6.3 3.7-11.4 7.2-11.4 7.8 0 .6 1 3.6 2.2 6.8 2.1 5.3 2.5 5.7 5 5.3 4.1-.7 7.4-1.2 16.3-2.5 4.4-.7 8.7-1.3 9.5-1.5.8-.1 4.2-.6 7.5-.9 31.7-3.6 56-11.6 72.5-23.8 17.9-13.3 36.6-39.9 48.5-68.8 1.4-3.6 3.2-7.9 3.9-9.5.7-1.7 3-7.6 5.1-13.2 3.1-8.6 4.1-10.3 5.9-10.3 1.1-.1 43.5-.2 94.1-.4 84.6-.2 92.4-.4 97.4-2 11.6-3.8 20.4-10.5 24.9-19l2.7-5.1.2-145.9c.2-80.6-.1-146.4-.6-147-.4-.6-1.1-2.3-1.5-3.8-.9-3.8-9.6-12.9-15.5-16.1C446.9 0 465.9.6 240.5.4 121.9.3 34.8.6 32.5 1.1z"/></svg>